<?xml version="1.0" encoding="utf-8"?>
<!-- Svg Vector Icons : http://www.onlinewebfonts.com/icon -->
<!DOCTYPE svg PUBLIC "-//W3C//DTD SVG 1.1//EN" "http://www.w3.org/Graphics/SVG/1.1/DTD/svg11.dtd">
<svg version="1.1" xmlns="http://www.w3.org/2000/svg" xmlns:xlink="http://www.w3.org/1999/xlink" x="0px" y="0px" viewBox="0 0 1000 1000" enable-background="new 0 0 1000 1000" xml:space="preserve">
<metadata> Svg Vector Icons : http://www.onlinewebfonts.com/icon </metadata>
<g><g transform="translate(0.000000,511.000000) scale(0.100000,-0.100000)"><path d="M5067.6,4701.8c-61.7-37.8-214.9-248.7-326.3-449.6c-35.8-65.6-67.6-121.3-69.6-125.3c-4-4-61.7,8-131.3,23.9c-312.3,71.6-571,99.5-913.2,101.5c-543.1,0-857.5-73.6-1452.3-344.2c-368-167.1-495.4-206.9-654.5-200.9c-67.6,2-125.3,0-131.3-4c-4-6,2-45.8,15.9-89.5c33.8-111.4,181-250.7,318.3-304.4c537.2-200.9,1645.3,13.9,2578.3,499.3c242.7,125.3,262.6,133.3,228.8,81.6c-409.8-618.7-730.1-1193.7-994.7-1780.6C3179.7,1319.8,2883.2,368.8,2740-438.9c-31.8-171.1-61.7-310.3-67.6-306.4c-75.6,43.8-360.1,169.1-467.5,206.9c-730.1,248.7-1438.4,35.8-1820.3-545.1C181.6-1391.9,100-1684.3,100-2104.1c0-493.4,155.2-972.8,465.5-1442.3c372-561,1054.4-889.3,1987.5-954.9c580.9-39.8,1070.3,161.1,1585.6,652.5c330.2,318.3,557,676.4,674.4,1078.3c47.7,155.2,53.7,216.9,55.7,467.5c2,340.2-21.9,455.6-155.2,726.2c-151.2,306.4-407.8,539.2-750,682.4c-230.8,95.5-425.7,129.3-758,131.3l-292.4,2l8,49.7c6,27.9,23.9,149.2,41.8,268.6c133.3,925.1,465.5,1921.8,982.8,2954.3c300.4,600.8,734.1,1315,1006.7,1661.2l95.5,119.4l25.9-185c105.4-724.2,521.2-1697,1046.4-2441c236.8-336.2,455.6-602.8,736.1-897.2l113.4-121.4l-195-11.9c-449.6-29.8-879.3-202.9-1157.9-463.5c-314.3-296.4-457.6-630.7-457.6-1064.3c0-762,523.2-1496.1,1362.8-1909.9c344.2-171.1,485.4-202.9,865.4-202.9c260.6-2,342.2,6,527.2,49.7c523.2,123.3,1022.6,364.1,1315,636.6c393.9,368,668.5,1082.3,670.4,1736.8c2,571-159.2,996.7-513.3,1354.8c-155.2,157.2-206.9,195-368,272.5c-222.8,107.4-415.8,153.2-634.6,153.2c-350.1,0-692.3-113.4-1062.3-350.1c-101.5-65.6-143.3-83.6-169.1-69.6c-63.7,33.8-493.4,489.4-660.5,698.3c-447.6,563-837.6,1273.2-1070.3,1959.6c-161.1,469.5-256.6,947-204.9,1026.6c19.9,33.8,17.9,61.7-5.9,147.2C5175.1,4731.6,5147.2,4749.5,5067.6,4701.8z M6179.7,140c-115.4-119.4-218.8-292.4-290.4-481.4c-55.7-147.2-61.7-183-63.7-423.8c-4-286.5-23.9-352.1-117.4-376c-79.6-19.9-119.4-2-155.2,71.6c-73.6,147.2-29.8,499.4,95.5,756c91.5,185,282.5,380,463.5,473.5c69.6,33.8,131.3,63.7,137.3,63.7C6257.3,223.6,6225.5,185.8,6179.7,140z M1775.1-743.3c55.7-12,49.7-15.9-97.5-67.6c-312.3-107.4-604.8-354.1-728.1-610.8c-81.6-169.1-143.2-224.8-244.7-224.8c-91.5,0-121.4,27.9-121.4,115.4c0,183,304.4,551.1,559,674.4C1353.3-751.3,1598-709.5,1775.1-743.3z"/></g></g>
</svg>